<svg xmlns="http://www.w3.org/2000/svg" viewBox="0 0 512 512">
<path fill-rule="evenodd" d="M308.396 9.14487C317.067 0.474186 330.01 -2.31773 341.484 2.00779C441.076 39.5526 512 135.741 512 248.573C512 394.06 394.06 512 248.573 512C135.741 512 39.5526 441.076 2.00779 341.484C-2.31773 330.01 0.474186 317.067 9.14487 308.396C17.8155 299.725 30.7592 296.933 42.2331 301.259C64.2361 309.554 88.1096 314.107 113.119 314.107C224.121 314.107 314.107 224.121 314.107 113.119C314.107 88.1096 309.554 64.2361 301.259 42.2331C296.933 30.7592 299.725 17.8155 308.396 9.14487Z"/>
</svg>