<svg xmlns="http://www.w3.org/2000/svg" viewBox="0 0 512 512">
<path fill-rule="evenodd" d="M227.556 51.2C227.556 66.9094 240.291 79.6444 256 79.6444C271.709 79.6444 284.444 66.9094 284.444 51.2V28.4444C284.444 12.735 271.709 0 256 0C240.291 0 227.556 12.735 227.556 28.4444V51.2ZM380.702 91.0713C369.594 102.18 369.594 120.19 380.702 131.298C391.81 142.406 409.82 142.406 420.929 131.298L437.019 115.207C448.127 104.099 448.127 86.0889 437.019 74.9807C425.911 63.8724 407.901 63.8724 396.793 74.9807L380.702 91.0713ZM74.9812 74.9807C86.0894 63.8724 104.099 63.8724 115.208 74.9807L131.298 91.0713C142.407 102.18 142.407 120.19 131.298 131.298C120.19 142.406 102.18 142.406 91.0718 131.298L74.9812 115.207C63.8729 104.099 63.8729 86.0889 74.9812 74.9807ZM0 256C0 240.291 12.735 227.556 28.4444 227.556H51.2C66.9094 227.556 79.6444 240.291 79.6444 256C79.6444 271.709 66.9094 284.444 51.2 284.444H28.4444C12.735 284.444 0 271.709 0 256ZM74.9812 396.793C63.8729 407.901 63.8729 425.911 74.9812 437.019C86.0894 448.128 104.099 448.128 115.208 437.019L131.298 420.929C142.407 409.82 142.407 391.81 131.298 380.702C120.19 369.594 102.18 369.594 91.0718 380.702L74.9812 396.793ZM227.556 483.556C227.556 499.265 240.291 512 256 512C271.709 512 284.444 499.265 284.444 483.556V460.8C284.444 445.091 271.709 432.356 256 432.356C240.291 432.356 227.556 445.091 227.556 460.8V483.556ZM432.356 256C432.356 240.291 445.091 227.556 460.8 227.556H483.556C499.265 227.556 512 240.291 512 256C512 271.709 499.265 284.444 483.556 284.444H460.8C445.091 284.444 432.356 271.709 432.356 256ZM380.702 380.702C391.81 369.594 409.82 369.594 420.929 380.702L437.019 396.793C448.127 407.901 448.127 425.911 437.019 437.019C425.911 448.128 407.901 448.128 396.793 437.019L380.702 420.929C369.594 409.82 369.594 391.81 380.702 380.702Z"/>
<path d="M392 256C392 331.111 331.111 392 256 392C180.889 392 120 331.111 120 256C120 180.889 180.889 120 256 120C331.111 120 392 180.889 392 256Z"/>
</svg>